<svg width="180" height="51" viewBox="0 0 180 51" fill="none" xmlns="http://www.w3.org/2000/svg">
<rect x="0.666748" width="178.667" height="51" rx="6" fill="#E6E5E5"/>
<g clip-path="url(#clip0_220_3585)">
<path fill-rule="evenodd" clip-rule="evenodd" d="M24.4047 19.0742C24.5654 18.9753 24.7681 18.9753 24.9288 19.0742L31.4288 23.0742C31.6194 23.1914 31.7088 23.4209 31.6479 23.6362C31.587 23.8514 31.3905 24 31.1668 24H18.1668C17.9431 24 17.7466 23.8514 17.6857 23.6362C17.6248 23.4209 17.7142 23.1914 17.9047 23.0742L24.4047 19.0742ZM19.9333 23H29.4003L24.6668 20.0871L19.9333 23Z" fill="#8047F8"/>
<path fill-rule="evenodd" clip-rule="evenodd" d="M20.1667 23C20.4429 23 20.6667 23.2239 20.6667 23.5V28.5C20.6667 28.7761 20.4429 29 20.1667 29C19.8906 29 19.6667 28.7761 19.6667 28.5V23.5C19.6667 23.2239 19.8906 23 20.1667 23Z" fill="#8047F8"/>
<path fill-rule="evenodd" clip-rule="evenodd" d="M23.1667 23C23.4429 23 23.6667 23.2239 23.6667 23.5V28.5C23.6667 28.7761 23.4429 29 23.1667 29C22.8906 29 22.6667 28.7761 22.6667 28.5V23.5C22.6667 23.2239 22.8906 23 23.1667 23Z" fill="#8047F8"/>
<path fill-rule="evenodd" clip-rule="evenodd" d="M26.1667 23C26.4429 23 26.6667 23.2239 26.6667 23.5V28.5C26.6667 28.7761 26.4429 29 26.1667 29C25.8906 29 25.6667 28.7761 25.6667 28.5V23.5C25.6667 23.2239 25.8906 23 26.1667 23Z" fill="#8047F8"/>
<path fill-rule="evenodd" clip-rule="evenodd" d="M29.1667 23C29.4429 23 29.6667 23.2239 29.6667 23.5V28.5C29.6667 28.7761 29.4429 29 29.1667 29C28.8906 29 28.6667 28.7761 28.6667 28.5V23.5C28.6667 23.2239 28.8906 23 29.1667 23Z" fill="#8047F8"/>
<path fill-rule="evenodd" clip-rule="evenodd" d="M18.1667 28.5C18.1667 28.2239 18.3906 28 18.6667 28H30.6667C30.9429 28 31.1667 28.2239 31.1667 28.5C31.1667 28.7761 30.9429 29 30.6667 29H18.6667C18.3906 29 18.1667 28.7761 18.1667 28.5Z" fill="#8047F8"/>
<path fill-rule="evenodd" clip-rule="evenodd" d="M17.1667 30.5C17.1667 30.2239 17.3906 30 17.6667 30H31.6667C31.9429 30 32.1667 30.2239 32.1667 30.5C32.1667 30.7761 31.9429 31 31.6667 31H17.6667C17.3906 31 17.1667 30.7761 17.1667 30.5Z" fill="#8047F8"/>
</g>
<path d="M50.8074 27.2871H51.9324C51.8738 27.8262 51.7195 28.3086 51.4695 28.7344C51.2195 29.1602 50.866 29.498 50.4089 29.748C49.9519 29.9941 49.3816 30.1172 48.698 30.1172C48.198 30.1172 47.7429 30.0234 47.3328 29.8359C46.9265 29.6484 46.5769 29.3828 46.2839 29.0391C45.991 28.6914 45.7644 28.2754 45.6042 27.791C45.448 27.3027 45.3699 26.7598 45.3699 26.1621V25.3125C45.3699 24.7148 45.448 24.1738 45.6042 23.6895C45.7644 23.2012 45.9929 22.7832 46.2898 22.4355C46.5906 22.0879 46.9519 21.8203 47.3738 21.6328C47.7957 21.4453 48.2703 21.3516 48.7976 21.3516C49.4421 21.3516 49.9871 21.4727 50.4324 21.7148C50.8777 21.957 51.2234 22.293 51.4695 22.7227C51.7195 23.1484 51.8738 23.6426 51.9324 24.2051H50.8074C50.7527 23.8066 50.6511 23.4648 50.5027 23.1797C50.3542 22.8906 50.1433 22.668 49.8699 22.5117C49.5964 22.3555 49.239 22.2773 48.7976 22.2773C48.4187 22.2773 48.0847 22.3496 47.7957 22.4941C47.5105 22.6387 47.2703 22.8438 47.075 23.1094C46.8835 23.375 46.739 23.6934 46.6414 24.0645C46.5437 24.4355 46.4949 24.8477 46.4949 25.3008V26.1621C46.4949 26.5801 46.5378 26.9727 46.6238 27.3398C46.7136 27.707 46.8484 28.0293 47.0281 28.3066C47.2078 28.584 47.4363 28.8027 47.7136 28.9629C47.991 29.1191 48.3191 29.1973 48.698 29.1973C49.1785 29.1973 49.5613 29.1211 49.8464 28.9688C50.1316 28.8164 50.3464 28.5977 50.491 28.3125C50.6394 28.0273 50.7449 27.6855 50.8074 27.2871ZM56.6316 22.2246L53.8074 30H52.6531L55.905 21.4688H56.6492L56.6316 22.2246ZM58.9988 30L56.1687 22.2246L56.1511 21.4688H56.8953L60.1589 30H58.9988ZM58.8523 26.8418V27.7676H54.0593V26.8418H58.8523ZM61.3015 21.4688H64.1257C64.7664 21.4688 65.3074 21.5664 65.7488 21.7617C66.1941 21.957 66.532 22.2461 66.7625 22.6289C66.9968 23.0078 67.114 23.4746 67.114 24.0293C67.114 24.4199 67.0339 24.7773 66.8738 25.1016C66.7175 25.4219 66.491 25.6953 66.1941 25.9219C65.9011 26.1445 65.5496 26.3105 65.1394 26.4199L64.823 26.543H62.1687L62.157 25.623H64.1609C64.5671 25.623 64.905 25.5527 65.1746 25.4121C65.4441 25.2676 65.6472 25.0742 65.7839 24.832C65.9207 24.5898 65.989 24.3223 65.989 24.0293C65.989 23.7012 65.9246 23.4141 65.7957 23.168C65.6667 22.9219 65.4636 22.7324 65.1863 22.5996C64.9128 22.4629 64.5593 22.3945 64.1257 22.3945H62.4324V30H61.3015V21.4688ZM66.2878 30L64.2136 26.1328L65.3914 26.127L67.4949 29.9297V30H66.2878ZM71.3796 21.4688V30H70.2664V21.4688H71.3796ZM74.1218 21.4688V22.3945H67.53V21.4688H74.1218ZM78.0769 22.2246L75.2527 30H74.0984L77.3503 21.4688H78.0945L78.0769 22.2246ZM80.4441 30L77.614 22.2246L77.5964 21.4688H78.3406L81.6042 30H80.4441ZM80.2976 26.8418V27.7676H75.5046V26.8418H80.2976ZM79.2136 19.2949L79.946 19.3594C79.946 19.6445 79.8894 19.8945 79.7761 20.1094C79.6628 20.3242 79.5105 20.4902 79.3191 20.6074C79.1316 20.7246 78.9187 20.7832 78.6804 20.7832C78.4812 20.7832 78.3171 20.7559 78.1882 20.7012C78.0593 20.6426 77.9441 20.5781 77.8425 20.5078C77.741 20.4336 77.6335 20.3691 77.5203 20.3145C77.4109 20.2559 77.2742 20.2266 77.1101 20.2266C76.946 20.2266 76.8074 20.2891 76.6941 20.4141C76.5847 20.5391 76.53 20.6934 76.53 20.877L75.7976 20.8418C75.7976 20.5566 75.8523 20.3066 75.9617 20.0918C76.075 19.873 76.2273 19.7031 76.4187 19.582C76.6101 19.457 76.823 19.3945 77.0574 19.3945C77.2253 19.3945 77.3718 19.4238 77.4968 19.4824C77.6257 19.5371 77.7468 19.6016 77.8601 19.6758C77.9734 19.7461 78.0906 19.8105 78.2117 19.8691C78.3328 19.9238 78.4714 19.9512 78.6277 19.9512C78.7917 19.9512 78.9304 19.8887 79.0437 19.7637C79.157 19.6348 79.2136 19.4785 79.2136 19.2949ZM89.2449 25.4648V26.0039C89.2449 26.6445 89.1648 27.2188 89.0046 27.7266C88.8445 28.2344 88.614 28.666 88.3132 29.0215C88.0125 29.377 87.6511 29.6484 87.2292 29.8359C86.8113 30.0234 86.3425 30.1172 85.823 30.1172C85.3191 30.1172 84.8562 30.0234 84.4343 29.8359C84.0164 29.6484 83.6531 29.377 83.3445 29.0215C83.0398 28.666 82.8035 28.2344 82.6355 27.7266C82.4675 27.2188 82.3835 26.6445 82.3835 26.0039V25.4648C82.3835 24.8242 82.4656 24.252 82.6296 23.748C82.7976 23.2402 83.0339 22.8086 83.3386 22.4531C83.6433 22.0938 84.0046 21.8203 84.4226 21.6328C84.8445 21.4453 85.3074 21.3516 85.8113 21.3516C86.3308 21.3516 86.7996 21.4453 87.2175 21.6328C87.6394 21.8203 88.0007 22.0938 88.3015 22.4531C88.6062 22.8086 88.8386 23.2402 88.9988 23.748C89.1628 24.252 89.2449 24.8242 89.2449 25.4648ZM88.1257 26.0039V25.4531C88.1257 24.9453 88.073 24.4961 87.9675 24.1055C87.866 23.7148 87.7156 23.3867 87.5164 23.1211C87.3171 22.8555 87.073 22.6543 86.7839 22.5176C86.4988 22.3809 86.1746 22.3125 85.8113 22.3125C85.4597 22.3125 85.1414 22.3809 84.8562 22.5176C84.575 22.6543 84.3328 22.8555 84.1296 23.1211C83.9304 23.3867 83.7761 23.7148 83.6667 24.1055C83.5574 24.4961 83.5027 24.9453 83.5027 25.4531V26.0039C83.5027 26.5156 83.5574 26.9688 83.6667 27.3633C83.7761 27.7539 83.9324 28.084 84.1355 28.3535C84.3425 28.6191 84.5867 28.8203 84.8679 28.957C85.1531 29.0938 85.4714 29.1621 85.823 29.1621C86.1902 29.1621 86.5164 29.0938 86.8015 28.957C87.0867 28.8203 87.3269 28.6191 87.5222 28.3535C87.7214 28.084 87.8718 27.7539 87.9734 27.3633C88.075 26.9688 88.1257 26.5156 88.1257 26.0039ZM96.2234 30H94.4421L94.4539 29.0801H96.2234C96.8328 29.0801 97.3406 28.9531 97.7468 28.6992C98.1531 28.4414 98.4578 28.082 98.6609 27.6211C98.8679 27.1562 98.9714 26.6133 98.9714 25.9922V25.4707C98.9714 24.9824 98.9128 24.5488 98.7957 24.1699C98.6785 23.7871 98.5066 23.4648 98.28 23.2031C98.0535 22.9375 97.7761 22.7363 97.448 22.5996C97.1238 22.4629 96.7507 22.3945 96.3289 22.3945H94.407V21.4688H96.3289C96.8875 21.4688 97.3972 21.5625 97.8582 21.75C98.3191 21.9336 98.7156 22.2012 99.0476 22.5527C99.3835 22.9004 99.6414 23.3223 99.821 23.8184C100.001 24.3105 100.091 24.8652 100.091 25.4824V25.9922C100.091 26.6094 100.001 27.166 99.821 27.6621C99.6414 28.1543 99.3816 28.5742 99.0417 28.9219C98.7058 29.2695 98.2996 29.5371 97.823 29.7246C97.3503 29.9082 96.8171 30 96.2234 30ZM95.0457 21.4688V30H93.9148V21.4688H95.0457ZM107.21 29.0801V30H102.692V29.0801H107.21ZM102.921 21.4688V30H101.79V21.4688H102.921ZM106.612 25.1367V26.0566H102.692V25.1367H106.612ZM107.151 21.4688V22.3945H102.692V21.4688H107.151ZM113.895 30H112.114L112.126 29.0801H113.895C114.505 29.0801 115.012 28.9531 115.419 28.6992C115.825 28.4414 116.13 28.082 116.333 27.6211C116.54 27.1562 116.643 26.6133 116.643 25.9922V25.4707C116.643 24.9824 116.585 24.5488 116.468 24.1699C116.35 23.7871 116.178 23.4648 115.952 23.2031C115.725 22.9375 115.448 22.7363 115.12 22.5996C114.796 22.4629 114.423 22.3945 114.001 22.3945H112.079V21.4688H114.001C114.559 21.4688 115.069 21.5625 115.53 21.75C115.991 21.9336 116.387 22.2012 116.719 22.5527C117.055 22.9004 117.313 23.3223 117.493 23.8184C117.673 24.3105 117.762 24.8652 117.762 25.4824V25.9922C117.762 26.6094 117.673 27.166 117.493 27.6621C117.313 28.1543 117.053 28.5742 116.714 28.9219C116.378 29.2695 115.971 29.5371 115.495 29.7246C115.022 29.9082 114.489 30 113.895 30ZM112.718 21.4688V30H111.587V21.4688H112.718ZM124.882 29.0801V30H120.364V29.0801H124.882ZM120.593 21.4688V30H119.462V21.4688H120.593ZM124.284 25.1367V26.0566H120.364V25.1367H124.284ZM124.823 21.4688V22.3945H120.364V21.4688H124.823ZM121.501 20.8359L122.637 19.1133H123.944L122.374 20.8359H121.501ZM129.323 26.0098H127.161L127.149 25.1016H129.112C129.436 25.1016 129.719 25.0469 129.962 24.9375C130.204 24.8281 130.391 24.6719 130.524 24.4688C130.661 24.2617 130.729 24.0156 130.729 23.7305C130.729 23.418 130.669 23.1641 130.548 22.9688C130.43 22.7695 130.249 22.625 130.003 22.5352C129.76 22.4414 129.452 22.3945 129.077 22.3945H127.413V30H126.282V21.4688H129.077C129.514 21.4688 129.905 21.5137 130.249 21.6035C130.593 21.6895 130.884 21.8262 131.122 22.0137C131.364 22.1973 131.548 22.4316 131.673 22.7168C131.798 23.002 131.86 23.3438 131.86 23.7422C131.86 24.0938 131.77 24.4121 131.591 24.6973C131.411 24.9785 131.161 25.209 130.841 25.3887C130.524 25.5684 130.153 25.6836 129.727 25.7344L129.323 26.0098ZM129.27 30H126.716L127.354 29.0801H129.27C129.63 29.0801 129.934 29.0176 130.184 28.8926C130.438 28.7676 130.632 28.5918 130.764 28.3652C130.897 28.1348 130.964 27.8633 130.964 27.5508C130.964 27.2344 130.907 26.9609 130.794 26.7305C130.68 26.5 130.503 26.3223 130.26 26.1973C130.018 26.0723 129.706 26.0098 129.323 26.0098H127.712L127.723 25.1016H129.927L130.167 25.4297C130.577 25.4648 130.925 25.582 131.21 25.7812C131.495 25.9766 131.712 26.2266 131.86 26.5312C132.012 26.8359 132.089 27.1719 132.089 27.5391C132.089 28.0703 131.971 28.5195 131.737 28.8867C131.507 29.25 131.18 29.5273 130.759 29.7188C130.337 29.9062 129.841 30 129.27 30ZM134.971 21.4688V30H133.841V21.4688H134.971ZM140.005 21.4688V30H138.891V21.4688H140.005ZM142.747 21.4688V22.3945H136.155V21.4688H142.747ZM150.417 25.4648V26.0039C150.417 26.6445 150.337 27.2188 150.177 27.7266C150.016 28.2344 149.786 28.666 149.485 29.0215C149.184 29.377 148.823 29.6484 148.401 29.8359C147.983 30.0234 147.514 30.1172 146.995 30.1172C146.491 30.1172 146.028 30.0234 145.606 29.8359C145.188 29.6484 144.825 29.377 144.516 29.0215C144.212 28.666 143.975 28.2344 143.807 27.7266C143.639 27.2188 143.555 26.6445 143.555 26.0039V25.4648C143.555 24.8242 143.637 24.252 143.802 23.748C143.969 23.2402 144.206 22.8086 144.51 22.4531C144.815 22.0938 145.177 21.8203 145.594 21.6328C146.016 21.4453 146.479 21.3516 146.983 21.3516C147.503 21.3516 147.971 21.4453 148.389 21.6328C148.811 21.8203 149.173 22.0938 149.473 22.4531C149.778 22.8086 150.01 23.2402 150.171 23.748C150.335 24.252 150.417 24.8242 150.417 25.4648ZM149.298 26.0039V25.4531C149.298 24.9453 149.245 24.4961 149.139 24.1055C149.038 23.7148 148.887 23.3867 148.688 23.1211C148.489 22.8555 148.245 22.6543 147.956 22.5176C147.671 22.3809 147.346 22.3125 146.983 22.3125C146.632 22.3125 146.313 22.3809 146.028 22.5176C145.747 22.6543 145.505 22.8555 145.302 23.1211C145.102 23.3867 144.948 23.7148 144.839 24.1055C144.729 24.4961 144.675 24.9453 144.675 25.4531V26.0039C144.675 26.5156 144.729 26.9688 144.839 27.3633C144.948 27.7539 145.104 28.084 145.307 28.3535C145.514 28.6191 145.759 28.8203 146.04 28.957C146.325 29.0938 146.643 29.1621 146.995 29.1621C147.362 29.1621 147.688 29.0938 147.973 28.957C148.259 28.8203 148.499 28.6191 148.694 28.3535C148.893 28.084 149.044 27.7539 149.145 27.3633C149.247 26.9688 149.298 26.5156 149.298 26.0039Z" fill="#574F4D"/>
<defs>
<clipPath id="clip0_220_3585">
<rect width="16" height="16" fill="white" transform="translate(16.6667 17.5)"/>
</clipPath>
</defs>
</svg>
