<svg width="179" height="51" viewBox="0 0 179 51" fill="none" xmlns="http://www.w3.org/2000/svg">
<rect width="178.667" height="51" rx="6" fill="#E6E5E5"/>
<path fill-rule="evenodd" clip-rule="evenodd" d="M17 21.5C17 20.9477 17.4477 20.5 18 20.5H30C30.5523 20.5 31 20.9477 31 21.5V29.5C31 30.0523 30.5523 30.5 30 30.5H18C17.4477 30.5 17 30.0523 17 29.5V21.5ZM30 21.5H18V29.5H30V21.5Z" fill="#8047F8"/>
<path fill-rule="evenodd" clip-rule="evenodd" d="M26 28C26 27.7239 26.2239 27.5 26.5 27.5H28.5C28.7761 27.5 29 27.7239 29 28C29 28.2761 28.7761 28.5 28.5 28.5H26.5C26.2239 28.5 26 28.2761 26 28Z" fill="#8047F8"/>
<path fill-rule="evenodd" clip-rule="evenodd" d="M23 28C23 27.7239 23.2239 27.5 23.5 27.5H24.5C24.7761 27.5 25 27.7239 25 28C25 28.2761 24.7761 28.5 24.5 28.5H23.5C23.2239 28.5 23 28.2761 23 28Z" fill="#8047F8"/>
<path fill-rule="evenodd" clip-rule="evenodd" d="M17 23.5563C17 23.2801 17.2239 23.0563 17.5 23.0563H30.5C30.7761 23.0563 31 23.2801 31 23.5563C31 23.8324 30.7761 24.0563 30.5 24.0563H17.5C17.2239 24.0563 17 23.8324 17 23.5563Z" fill="#8047F8"/>
<path d="M50.1406 27.2871H51.2656C51.207 27.8262 51.0527 28.3086 50.8027 28.7344C50.5527 29.1602 50.1992 29.498 49.7422 29.748C49.2852 29.9941 48.7148 30.1172 48.0312 30.1172C47.5312 30.1172 47.0762 30.0234 46.666 29.8359C46.2598 29.6484 45.9102 29.3828 45.6172 29.0391C45.3242 28.6914 45.0977 28.2754 44.9375 27.791C44.7812 27.3027 44.7031 26.7598 44.7031 26.1621V25.3125C44.7031 24.7148 44.7812 24.1738 44.9375 23.6895C45.0977 23.2012 45.3262 22.7832 45.623 22.4355C45.9238 22.0879 46.2852 21.8203 46.707 21.6328C47.1289 21.4453 47.6035 21.3516 48.1309 21.3516C48.7754 21.3516 49.3203 21.4727 49.7656 21.7148C50.2109 21.957 50.5566 22.293 50.8027 22.7227C51.0527 23.1484 51.207 23.6426 51.2656 24.2051H50.1406C50.0859 23.8066 49.9844 23.4648 49.8359 23.1797C49.6875 22.8906 49.4766 22.668 49.2031 22.5117C48.9297 22.3555 48.5723 22.2773 48.1309 22.2773C47.752 22.2773 47.418 22.3496 47.1289 22.4941C46.8438 22.6387 46.6035 22.8438 46.4082 23.1094C46.2168 23.375 46.0723 23.6934 45.9746 24.0645C45.877 24.4355 45.8281 24.8477 45.8281 25.3008V26.1621C45.8281 26.5801 45.8711 26.9727 45.957 27.3398C46.0469 27.707 46.1816 28.0293 46.3613 28.3066C46.541 28.584 46.7695 28.8027 47.0469 28.9629C47.3242 29.1191 47.6523 29.1973 48.0312 29.1973C48.5117 29.1973 48.8945 29.1211 49.1797 28.9688C49.4648 28.8164 49.6797 28.5977 49.8242 28.3125C49.9727 28.0273 50.0781 27.6855 50.1406 27.2871ZM55.9648 22.2246L53.1406 30H51.9863L55.2383 21.4688H55.9824L55.9648 22.2246ZM58.332 30L55.502 22.2246L55.4844 21.4688H56.2285L59.4922 30H58.332ZM58.1855 26.8418V27.7676H53.3926V26.8418H58.1855ZM60.6348 21.4688H63.459C64.0996 21.4688 64.6406 21.5664 65.082 21.7617C65.5273 21.957 65.8652 22.2461 66.0957 22.6289C66.3301 23.0078 66.4473 23.4746 66.4473 24.0293C66.4473 24.4199 66.3672 24.7773 66.207 25.1016C66.0508 25.4219 65.8242 25.6953 65.5273 25.9219C65.2344 26.1445 64.8828 26.3105 64.4727 26.4199L64.1562 26.543H61.502L61.4902 25.623H63.4941C63.9004 25.623 64.2383 25.5527 64.5078 25.4121C64.7773 25.2676 64.9805 25.0742 65.1172 24.832C65.2539 24.5898 65.3223 24.3223 65.3223 24.0293C65.3223 23.7012 65.2578 23.4141 65.1289 23.168C65 22.9219 64.7969 22.7324 64.5195 22.5996C64.2461 22.4629 63.8926 22.3945 63.459 22.3945H61.7656V30H60.6348V21.4688ZM65.6211 30L63.5469 26.1328L64.7246 26.127L66.8281 29.9297V30H65.6211ZM70.7129 21.4688V30H69.5996V21.4688H70.7129ZM73.4551 21.4688V22.3945H66.8633V21.4688H73.4551ZM77.4102 22.2246L74.5859 30H73.4316L76.6836 21.4688H77.4277L77.4102 22.2246ZM79.7773 30L76.9473 22.2246L76.9297 21.4688H77.6738L80.9375 30H79.7773ZM79.6309 26.8418V27.7676H74.8379V26.8418H79.6309ZM78.5469 19.2949L79.2793 19.3594C79.2793 19.6445 79.2227 19.8945 79.1094 20.1094C78.9961 20.3242 78.8438 20.4902 78.6523 20.6074C78.4648 20.7246 78.252 20.7832 78.0137 20.7832C77.8145 20.7832 77.6504 20.7559 77.5215 20.7012C77.3926 20.6426 77.2773 20.5781 77.1758 20.5078C77.0742 20.4336 76.9668 20.3691 76.8535 20.3145C76.7441 20.2559 76.6074 20.2266 76.4434 20.2266C76.2793 20.2266 76.1406 20.2891 76.0273 20.4141C75.918 20.5391 75.8633 20.6934 75.8633 20.877L75.1309 20.8418C75.1309 20.5566 75.1855 20.3066 75.2949 20.0918C75.4082 19.873 75.5605 19.7031 75.752 19.582C75.9434 19.457 76.1562 19.3945 76.3906 19.3945C76.5586 19.3945 76.7051 19.4238 76.8301 19.4824C76.959 19.5371 77.0801 19.6016 77.1934 19.6758C77.3066 19.7461 77.4238 19.8105 77.5449 19.8691C77.666 19.9238 77.8047 19.9512 77.9609 19.9512C78.125 19.9512 78.2637 19.8887 78.377 19.7637C78.4902 19.6348 78.5469 19.4785 78.5469 19.2949ZM88.5781 25.4648V26.0039C88.5781 26.6445 88.498 27.2188 88.3379 27.7266C88.1777 28.2344 87.9473 28.666 87.6465 29.0215C87.3457 29.377 86.9844 29.6484 86.5625 29.8359C86.1445 30.0234 85.6758 30.1172 85.1562 30.1172C84.6523 30.1172 84.1895 30.0234 83.7676 29.8359C83.3496 29.6484 82.9863 29.377 82.6777 29.0215C82.373 28.666 82.1367 28.2344 81.9688 27.7266C81.8008 27.2188 81.7168 26.6445 81.7168 26.0039V25.4648C81.7168 24.8242 81.7988 24.252 81.9629 23.748C82.1309 23.2402 82.3672 22.8086 82.6719 22.4531C82.9766 22.0938 83.3379 21.8203 83.7559 21.6328C84.1777 21.4453 84.6406 21.3516 85.1445 21.3516C85.6641 21.3516 86.1328 21.4453 86.5508 21.6328C86.9727 21.8203 87.334 22.0938 87.6348 22.4531C87.9395 22.8086 88.1719 23.2402 88.332 23.748C88.4961 24.252 88.5781 24.8242 88.5781 25.4648ZM87.459 26.0039V25.4531C87.459 24.9453 87.4062 24.4961 87.3008 24.1055C87.1992 23.7148 87.0488 23.3867 86.8496 23.1211C86.6504 22.8555 86.4062 22.6543 86.1172 22.5176C85.832 22.3809 85.5078 22.3125 85.1445 22.3125C84.793 22.3125 84.4746 22.3809 84.1895 22.5176C83.9082 22.6543 83.666 22.8555 83.4629 23.1211C83.2637 23.3867 83.1094 23.7148 83 24.1055C82.8906 24.4961 82.8359 24.9453 82.8359 25.4531V26.0039C82.8359 26.5156 82.8906 26.9688 83 27.3633C83.1094 27.7539 83.2656 28.084 83.4688 28.3535C83.6758 28.6191 83.9199 28.8203 84.2012 28.957C84.4863 29.0938 84.8047 29.1621 85.1562 29.1621C85.5234 29.1621 85.8496 29.0938 86.1348 28.957C86.4199 28.8203 86.6602 28.6191 86.8555 28.3535C87.0547 28.084 87.2051 27.7539 87.3066 27.3633C87.4082 26.9688 87.459 26.5156 87.459 26.0039ZM95.5566 30H93.7754L93.7871 29.0801H95.5566C96.166 29.0801 96.6738 28.9531 97.0801 28.6992C97.4863 28.4414 97.791 28.082 97.9941 27.6211C98.2012 27.1562 98.3047 26.6133 98.3047 25.9922V25.4707C98.3047 24.9824 98.2461 24.5488 98.1289 24.1699C98.0117 23.7871 97.8398 23.4648 97.6133 23.2031C97.3867 22.9375 97.1094 22.7363 96.7812 22.5996C96.457 22.4629 96.084 22.3945 95.6621 22.3945H93.7402V21.4688H95.6621C96.2207 21.4688 96.7305 21.5625 97.1914 21.75C97.6523 21.9336 98.0488 22.2012 98.3809 22.5527C98.7168 22.9004 98.9746 23.3223 99.1543 23.8184C99.334 24.3105 99.4238 24.8652 99.4238 25.4824V25.9922C99.4238 26.6094 99.334 27.166 99.1543 27.6621C98.9746 28.1543 98.7148 28.5742 98.375 28.9219C98.0391 29.2695 97.6328 29.5371 97.1562 29.7246C96.6836 29.9082 96.1504 30 95.5566 30ZM94.3789 21.4688V30H93.248V21.4688H94.3789ZM106.543 29.0801V30H102.025V29.0801H106.543ZM102.254 21.4688V30H101.123V21.4688H102.254ZM105.945 25.1367V26.0566H102.025V25.1367H105.945ZM106.484 21.4688V22.3945H102.025V21.4688H106.484ZM116.07 27.2871H117.195C117.137 27.8262 116.982 28.3086 116.732 28.7344C116.482 29.1602 116.129 29.498 115.672 29.748C115.215 29.9941 114.645 30.1172 113.961 30.1172C113.461 30.1172 113.006 30.0234 112.596 29.8359C112.189 29.6484 111.84 29.3828 111.547 29.0391C111.254 28.6914 111.027 28.2754 110.867 27.791C110.711 27.3027 110.633 26.7598 110.633 26.1621V25.3125C110.633 24.7148 110.711 24.1738 110.867 23.6895C111.027 23.2012 111.256 22.7832 111.553 22.4355C111.854 22.0879 112.215 21.8203 112.637 21.6328C113.059 21.4453 113.533 21.3516 114.061 21.3516C114.705 21.3516 115.25 21.4727 115.695 21.7148C116.141 21.957 116.486 22.293 116.732 22.7227C116.982 23.1484 117.137 23.6426 117.195 24.2051H116.07C116.016 23.8066 115.914 23.4648 115.766 23.1797C115.617 22.8906 115.406 22.668 115.133 22.5117C114.859 22.3555 114.502 22.2773 114.061 22.2773C113.682 22.2773 113.348 22.3496 113.059 22.4941C112.773 22.6387 112.533 22.8438 112.338 23.1094C112.146 23.375 112.002 23.6934 111.904 24.0645C111.807 24.4355 111.758 24.8477 111.758 25.3008V26.1621C111.758 26.5801 111.801 26.9727 111.887 27.3398C111.977 27.707 112.111 28.0293 112.291 28.3066C112.471 28.584 112.699 28.8027 112.977 28.9629C113.254 29.1191 113.582 29.1973 113.961 29.1973C114.441 29.1973 114.824 29.1211 115.109 28.9688C115.395 28.8164 115.609 28.5977 115.754 28.3125C115.902 28.0273 116.008 27.6855 116.07 27.2871ZM118.736 21.4688H121.561C122.201 21.4688 122.742 21.5664 123.184 21.7617C123.629 21.957 123.967 22.2461 124.197 22.6289C124.432 23.0078 124.549 23.4746 124.549 24.0293C124.549 24.4199 124.469 24.7773 124.309 25.1016C124.152 25.4219 123.926 25.6953 123.629 25.9219C123.336 26.1445 122.984 26.3105 122.574 26.4199L122.258 26.543H119.604L119.592 25.623H121.596C122.002 25.623 122.34 25.5527 122.609 25.4121C122.879 25.2676 123.082 25.0742 123.219 24.832C123.355 24.5898 123.424 24.3223 123.424 24.0293C123.424 23.7012 123.359 23.4141 123.23 23.168C123.102 22.9219 122.898 22.7324 122.621 22.5996C122.348 22.4629 121.994 22.3945 121.561 22.3945H119.867V30H118.736V21.4688ZM123.723 30L121.648 26.1328L122.826 26.127L124.93 29.9297V30H123.723ZM131.551 29.0801V30H127.033V29.0801H131.551ZM127.262 21.4688V30H126.131V21.4688H127.262ZM130.953 25.1367V26.0566H127.033V25.1367H130.953ZM131.492 21.4688V22.3945H127.033V21.4688H131.492ZM128.17 20.8359L129.307 19.1133H130.613L129.043 20.8359H128.17ZM135.26 30H133.479L133.49 29.0801H135.26C135.869 29.0801 136.377 28.9531 136.783 28.6992C137.189 28.4414 137.494 28.082 137.697 27.6211C137.904 27.1562 138.008 26.6133 138.008 25.9922V25.4707C138.008 24.9824 137.949 24.5488 137.832 24.1699C137.715 23.7871 137.543 23.4648 137.316 23.2031C137.09 22.9375 136.812 22.7363 136.484 22.5996C136.16 22.4629 135.787 22.3945 135.365 22.3945H133.443V21.4688H135.365C135.924 21.4688 136.434 21.5625 136.895 21.75C137.355 21.9336 137.752 22.2012 138.084 22.5527C138.42 22.9004 138.678 23.3223 138.857 23.8184C139.037 24.3105 139.127 24.8652 139.127 25.4824V25.9922C139.127 26.6094 139.037 27.166 138.857 27.6621C138.678 28.1543 138.418 28.5742 138.078 28.9219C137.742 29.2695 137.336 29.5371 136.859 29.7246C136.387 29.9082 135.854 30 135.26 30ZM134.082 21.4688V30H132.951V21.4688H134.082ZM142.039 21.4688V30H140.908V21.4688H142.039ZM147.072 21.4688V30H145.959V21.4688H147.072ZM149.814 21.4688V22.3945H143.223V21.4688H149.814ZM157.484 25.4648V26.0039C157.484 26.6445 157.404 27.2188 157.244 27.7266C157.084 28.2344 156.854 28.666 156.553 29.0215C156.252 29.377 155.891 29.6484 155.469 29.8359C155.051 30.0234 154.582 30.1172 154.062 30.1172C153.559 30.1172 153.096 30.0234 152.674 29.8359C152.256 29.6484 151.893 29.377 151.584 29.0215C151.279 28.666 151.043 28.2344 150.875 27.7266C150.707 27.2188 150.623 26.6445 150.623 26.0039V25.4648C150.623 24.8242 150.705 24.252 150.869 23.748C151.037 23.2402 151.273 22.8086 151.578 22.4531C151.883 22.0938 152.244 21.8203 152.662 21.6328C153.084 21.4453 153.547 21.3516 154.051 21.3516C154.57 21.3516 155.039 21.4453 155.457 21.6328C155.879 21.8203 156.24 22.0938 156.541 22.4531C156.846 22.8086 157.078 23.2402 157.238 23.748C157.402 24.252 157.484 24.8242 157.484 25.4648ZM156.365 26.0039V25.4531C156.365 24.9453 156.312 24.4961 156.207 24.1055C156.105 23.7148 155.955 23.3867 155.756 23.1211C155.557 22.8555 155.312 22.6543 155.023 22.5176C154.738 22.3809 154.414 22.3125 154.051 22.3125C153.699 22.3125 153.381 22.3809 153.096 22.5176C152.814 22.6543 152.572 22.8555 152.369 23.1211C152.17 23.3867 152.016 23.7148 151.906 24.1055C151.797 24.4961 151.742 24.9453 151.742 25.4531V26.0039C151.742 26.5156 151.797 26.9688 151.906 27.3633C152.016 27.7539 152.172 28.084 152.375 28.3535C152.582 28.6191 152.826 28.8203 153.107 28.957C153.393 29.0938 153.711 29.1621 154.062 29.1621C154.43 29.1621 154.756 29.0938 155.041 28.957C155.326 28.8203 155.566 28.6191 155.762 28.3535C155.961 28.084 156.111 27.7539 156.213 27.3633C156.314 26.9688 156.365 26.5156 156.365 26.0039Z" fill="#574F4D"/>
</svg>
