<svg width="179" height="51" viewBox="0 0 179 51" fill="none" xmlns="http://www.w3.org/2000/svg">
<rect x="0.333252" width="178.667" height="51" rx="6" fill="#E6E5E5"/>
<g clip-path="url(#clip0_220_3608)">
<path fill-rule="evenodd" clip-rule="evenodd" d="M16.8333 22C16.8333 21.4477 17.281 21 17.8333 21H30.8333C31.3855 21 31.8333 21.4477 31.8333 22V29C31.8333 29.5523 31.3855 30 30.8333 30H17.8333C17.281 30 16.8333 29.5523 16.8333 29V22ZM30.8333 22H17.8333V29H30.8333V22Z" fill="#8047F8"/>
<path fill-rule="evenodd" clip-rule="evenodd" d="M24.3333 24C23.5048 24 22.8333 24.6716 22.8333 25.5C22.8333 26.3284 23.5048 27 24.3333 27C25.1617 27 25.8333 26.3284 25.8333 25.5C25.8333 24.6716 25.1617 24 24.3333 24ZM21.8333 25.5C21.8333 24.1193 22.9525 23 24.3333 23C25.714 23 26.8333 24.1193 26.8333 25.5C26.8333 26.8807 25.714 28 24.3333 28C22.9525 28 21.8333 26.8807 21.8333 25.5Z" fill="#8047F8"/>
<path fill-rule="evenodd" clip-rule="evenodd" d="M26.957 21.1708C27.1388 20.9629 27.4547 20.9419 27.6625 21.1237L31.6625 24.6237C31.8703 24.8056 31.8914 25.1214 31.7095 25.3293C31.5277 25.5371 31.2118 25.5581 31.004 25.3763L27.004 21.8763C26.7962 21.6945 26.7751 21.3786 26.957 21.1708Z" fill="#8047F8"/>
<path fill-rule="evenodd" clip-rule="evenodd" d="M31.7095 25.6708C31.8914 25.8786 31.8703 26.1945 31.6625 26.3763L27.6625 29.8763C27.4547 30.0581 27.1388 30.0371 26.957 29.8293C26.7751 29.6214 26.7962 29.3056 27.004 29.1237L31.004 25.6237C31.2118 25.4419 31.5277 25.4629 31.7095 25.6708Z" fill="#8047F8"/>
<path fill-rule="evenodd" clip-rule="evenodd" d="M21.7095 21.1708C21.8914 21.3786 21.8703 21.6945 21.6625 21.8763L17.6625 25.3763C17.4547 25.5581 17.1388 25.5371 16.957 25.3293C16.7751 25.1214 16.7962 24.8056 17.004 24.6237L21.004 21.1237C21.2118 20.9419 21.5277 20.9629 21.7095 21.1708Z" fill="#8047F8"/>
<path fill-rule="evenodd" clip-rule="evenodd" d="M16.957 25.6708C17.1388 25.4629 17.4547 25.4419 17.6625 25.6237L21.6625 29.1237C21.8703 29.3056 21.8914 29.6214 21.7095 29.8293C21.5277 30.0371 21.2118 30.0581 21.004 29.8763L17.004 26.3763C16.7962 26.1945 16.7751 25.8786 16.957 25.6708Z" fill="#574F4D"/>
</g>
<path d="M47.6321 30H45.8508L45.8625 29.0801H47.6321C48.2415 29.0801 48.7493 28.9531 49.1555 28.6992C49.5618 28.4414 49.8665 28.082 50.0696 27.6211C50.2766 27.1562 50.3801 26.6133 50.3801 25.9922V25.4707C50.3801 24.9824 50.3215 24.5488 50.2043 24.1699C50.0872 23.7871 49.9153 23.4648 49.6887 23.2031C49.4622 22.9375 49.1848 22.7363 48.8567 22.5996C48.5325 22.4629 48.1594 22.3945 47.7375 22.3945H45.8157V21.4688H47.7375C48.2961 21.4688 48.8059 21.5625 49.2668 21.75C49.7278 21.9336 50.1243 22.2012 50.4563 22.5527C50.7922 22.9004 51.05 23.3223 51.2297 23.8184C51.4094 24.3105 51.4993 24.8652 51.4993 25.4824V25.9922C51.4993 26.6094 51.4094 27.166 51.2297 27.6621C51.05 28.1543 50.7903 28.5742 50.4504 28.9219C50.1145 29.2695 49.7083 29.5371 49.2317 29.7246C48.759 29.9082 48.2258 30 47.6321 30ZM46.4543 21.4688V30H45.3235V21.4688H46.4543ZM54.4114 21.4688V30H53.2805V21.4688H54.4114ZM63.0305 21.4688V30H61.8938L57.5989 23.4199V30H56.468V21.4688H57.5989L61.9114 28.0664V21.4688H63.0305ZM70.6067 25.1367V26.0566H65.9895V25.1367H70.6067ZM66.1653 21.4688V30H65.0344V21.4688H66.1653ZM71.5911 21.4688V30H70.4661V21.4688H71.5911ZM79.0208 29.0801V30H74.5032V29.0801H79.0208ZM74.7317 21.4688V30H73.6008V21.4688H74.7317ZM78.4231 25.1367V26.0566H74.5032V25.1367H78.4231ZM78.9622 21.4688V22.3945H74.5032V21.4688H78.9622ZM81.634 21.4688V30H80.5032V21.4688H81.634ZM83.6907 21.4688H86.5149C87.1555 21.4688 87.6965 21.5664 88.1379 21.7617C88.5833 21.957 88.9211 22.2461 89.1516 22.6289C89.386 23.0078 89.5032 23.4746 89.5032 24.0293C89.5032 24.4199 89.4231 24.7773 89.2629 25.1016C89.1067 25.4219 88.8801 25.6953 88.5833 25.9219C88.2903 26.1445 87.9387 26.3105 87.5286 26.4199L87.2122 26.543H84.5579L84.5461 25.623H86.55C86.9563 25.623 87.2942 25.5527 87.5637 25.4121C87.8333 25.2676 88.0364 25.0742 88.1731 24.832C88.3098 24.5898 88.3782 24.3223 88.3782 24.0293C88.3782 23.7012 88.3137 23.4141 88.1848 23.168C88.0559 22.9219 87.8528 22.7324 87.5754 22.5996C87.302 22.4629 86.9485 22.3945 86.5149 22.3945H84.8215V30H83.6907V21.4688ZM88.677 30L86.6028 26.1328L87.7805 26.127L89.884 29.9297V30H88.677ZM97.6536 25.4648V26.0039C97.6536 26.6445 97.5735 27.2188 97.4133 27.7266C97.2532 28.2344 97.0227 28.666 96.7219 29.0215C96.4211 29.377 96.0598 29.6484 95.6379 29.8359C95.22 30.0234 94.7512 30.1172 94.2317 30.1172C93.7278 30.1172 93.2649 30.0234 92.843 29.8359C92.425 29.6484 92.0618 29.377 91.7532 29.0215C91.4485 28.666 91.2122 28.2344 91.0442 27.7266C90.8762 27.2188 90.7922 26.6445 90.7922 26.0039V25.4648C90.7922 24.8242 90.8743 24.252 91.0383 23.748C91.2063 23.2402 91.4426 22.8086 91.7473 22.4531C92.052 22.0938 92.4133 21.8203 92.8313 21.6328C93.2532 21.4453 93.7161 21.3516 94.22 21.3516C94.7395 21.3516 95.2083 21.4453 95.6262 21.6328C96.0481 21.8203 96.4094 22.0938 96.7102 22.4531C97.0149 22.8086 97.2473 23.2402 97.4075 23.748C97.5715 24.252 97.6536 24.8242 97.6536 25.4648ZM96.5344 26.0039V25.4531C96.5344 24.9453 96.4817 24.4961 96.3762 24.1055C96.2747 23.7148 96.1243 23.3867 95.925 23.1211C95.7258 22.8555 95.4817 22.6543 95.1926 22.5176C94.9075 22.3809 94.5833 22.3125 94.22 22.3125C93.8684 22.3125 93.55 22.3809 93.2649 22.5176C92.9836 22.6543 92.7415 22.8555 92.5383 23.1211C92.3391 23.3867 92.1848 23.7148 92.0754 24.1055C91.9661 24.4961 91.9114 24.9453 91.9114 25.4531V26.0039C91.9114 26.5156 91.9661 26.9688 92.0754 27.3633C92.1848 27.7539 92.3411 28.084 92.5442 28.3535C92.7512 28.6191 92.9954 28.8203 93.2766 28.957C93.5618 29.0938 93.8801 29.1621 94.2317 29.1621C94.5989 29.1621 94.925 29.0938 95.2102 28.957C95.4954 28.8203 95.7356 28.6191 95.9309 28.3535C96.1301 28.084 96.2805 27.7539 96.3821 27.3633C96.4836 26.9688 96.5344 26.5156 96.5344 26.0039Z" fill="#574F4D"/>
<defs>
<clipPath id="clip0_220_3608">
<rect width="16" height="16" fill="white" transform="translate(16.3333 17.5)"/>
</clipPath>
</defs>
</svg>
