<svg width="91" height="33" viewBox="0 0 91 33" fill="none" xmlns="http://www.w3.org/2000/svg">
<rect y="0.5" width="91" height="32" rx="6" fill="#E6E5E5"/>
<path fill-rule="evenodd" clip-rule="evenodd" d="M10 12C10 11.7239 10.2239 11.5 10.5 11.5H21.5C21.7761 11.5 22 11.7239 22 12C22 12.2761 21.7761 12.5 21.5 12.5H10.5C10.2239 12.5 10 12.2761 10 12Z" fill="#8047F8"/>
<path fill-rule="evenodd" clip-rule="evenodd" d="M14.5 14.5C14.7761 14.5 15 14.7239 15 15V19C15 19.2761 14.7761 19.5 14.5 19.5C14.2239 19.5 14 19.2761 14 19V15C14 14.7239 14.2239 14.5 14.5 14.5Z" fill="#8047F8"/>
<path fill-rule="evenodd" clip-rule="evenodd" d="M17.5 14.5C17.7761 14.5 18 14.7239 18 15V19C18 19.2761 17.7761 19.5 17.5 19.5C17.2239 19.5 17 19.2761 17 19V15C17 14.7239 17.2239 14.5 17.5 14.5Z" fill="#8047F8"/>
<path fill-rule="evenodd" clip-rule="evenodd" d="M11.5 11.5C11.7761 11.5 12 11.7239 12 12V21.5H20V12C20 11.7239 20.2239 11.5 20.5 11.5C20.7761 11.5 21 11.7239 21 12V21.5C21 21.7652 20.8946 22.0196 20.7071 22.2071C20.5196 22.3946 20.2652 22.5 20 22.5H12C11.7348 22.5 11.4804 22.3946 11.2929 22.2071C11.1054 22.0196 11 21.7652 11 21.5V12C11 11.7239 11.2239 11.5 11.5 11.5Z" fill="#8047F8"/>
<path fill-rule="evenodd" clip-rule="evenodd" d="M13.4393 9.93934C13.7206 9.65804 14.1022 9.5 14.5 9.5H17.5C17.8978 9.5 18.2794 9.65804 18.5607 9.93934C18.842 10.2206 19 10.6022 19 11V12C19 12.2761 18.7761 12.5 18.5 12.5C18.2239 12.5 18 12.2761 18 12V11C18 10.8674 17.9473 10.7402 17.8536 10.6464C17.7598 10.5527 17.6326 10.5 17.5 10.5H14.5C14.3674 10.5 14.2402 10.5527 14.1464 10.6464C14.0527 10.7402 14 10.8674 14 11V12C14 12.2761 13.7761 12.5 13.5 12.5C13.2239 12.5 13 12.2761 13 12V11C13 10.6022 13.158 10.2206 13.4393 9.93934Z" fill="#8047F8"/>
<path d="M28.9902 12.4688H31.8145C32.4551 12.4688 32.9961 12.5664 33.4375 12.7617C33.8828 12.957 34.2207 13.2461 34.4512 13.6289C34.6855 14.0078 34.8027 14.4746 34.8027 15.0293C34.8027 15.4199 34.7227 15.7773 34.5625 16.1016C34.4062 16.4219 34.1797 16.6953 33.8828 16.9219C33.5898 17.1445 33.2383 17.3105 32.8281 17.4199L32.5117 17.543H29.8574L29.8457 16.623H31.8496C32.2559 16.623 32.5938 16.5527 32.8633 16.4121C33.1328 16.2676 33.3359 16.0742 33.4727 15.832C33.6094 15.5898 33.6777 15.3223 33.6777 15.0293C33.6777 14.7012 33.6133 14.4141 33.4844 14.168C33.3555 13.9219 33.1523 13.7324 32.875 13.5996C32.6016 13.4629 32.248 13.3945 31.8145 13.3945H30.1211V21H28.9902V12.4688ZM33.9766 21L31.9023 17.1328L33.0801 17.127L35.1836 20.9297V21H33.9766ZM41.8047 20.0801V21H37.2871V20.0801H41.8047ZM37.5156 12.4688V21H36.3848V12.4688H37.5156ZM41.207 16.1367V17.0566H37.2871V16.1367H41.207ZM41.7461 12.4688V13.3945H37.2871V12.4688H41.7461ZM43.5625 12.4688H44.6582L47.4531 19.4238L50.2422 12.4688H51.3438L47.875 21H47.0195L43.5625 12.4688ZM43.2051 12.4688H44.1719L44.3301 17.6719V21H43.2051V12.4688ZM50.7285 12.4688H51.6953V21H50.5703V17.6719L50.7285 12.4688ZM60.25 16.4648V17.0039C60.25 17.6445 60.1699 18.2188 60.0098 18.7266C59.8496 19.2344 59.6191 19.666 59.3184 20.0215C59.0176 20.377 58.6562 20.6484 58.2344 20.8359C57.8164 21.0234 57.3477 21.1172 56.8281 21.1172C56.3242 21.1172 55.8613 21.0234 55.4395 20.8359C55.0215 20.6484 54.6582 20.377 54.3496 20.0215C54.0449 19.666 53.8086 19.2344 53.6406 18.7266C53.4727 18.2188 53.3887 17.6445 53.3887 17.0039V16.4648C53.3887 15.8242 53.4707 15.252 53.6348 14.748C53.8027 14.2402 54.0391 13.8086 54.3438 13.4531C54.6484 13.0938 55.0098 12.8203 55.4277 12.6328C55.8496 12.4453 56.3125 12.3516 56.8164 12.3516C57.3359 12.3516 57.8047 12.4453 58.2227 12.6328C58.6445 12.8203 59.0059 13.0938 59.3066 13.4531C59.6113 13.8086 59.8438 14.2402 60.0039 14.748C60.168 15.252 60.25 15.8242 60.25 16.4648ZM59.1309 17.0039V16.4531C59.1309 15.9453 59.0781 15.4961 58.9727 15.1055C58.8711 14.7148 58.7207 14.3867 58.5215 14.1211C58.3223 13.8555 58.0781 13.6543 57.7891 13.5176C57.5039 13.3809 57.1797 13.3125 56.8164 13.3125C56.4648 13.3125 56.1465 13.3809 55.8613 13.5176C55.5801 13.6543 55.3379 13.8555 55.1348 14.1211C54.9355 14.3867 54.7812 14.7148 54.6719 15.1055C54.5625 15.4961 54.5078 15.9453 54.5078 16.4531V17.0039C54.5078 17.5156 54.5625 17.9688 54.6719 18.3633C54.7812 18.7539 54.9375 19.084 55.1406 19.3535C55.3477 19.6191 55.5918 19.8203 55.873 19.957C56.1582 20.0938 56.4766 20.1621 56.8281 20.1621C57.1953 20.1621 57.5215 20.0938 57.8066 19.957C58.0918 19.8203 58.332 19.6191 58.5273 19.3535C58.7266 19.084 58.877 18.7539 58.9785 18.3633C59.0801 17.9688 59.1309 17.5156 59.1309 17.0039ZM64.5684 19.7051L67.082 12.4688H68.3066L65.1484 21H64.2754L64.5684 19.7051ZM62.2188 12.4688L64.709 19.7051L65.0195 21H64.1465L60.9941 12.4688H62.2188ZM74.875 20.0801V21H70.3574V20.0801H74.875ZM70.5859 12.4688V21H69.4551V12.4688H70.5859ZM74.2773 16.1367V17.0566H70.3574V16.1367H74.2773ZM74.8164 12.4688V13.3945H70.3574V12.4688H74.8164ZM76.2754 12.4688H79.0996C79.7402 12.4688 80.2812 12.5664 80.7227 12.7617C81.168 12.957 81.5059 13.2461 81.7363 13.6289C81.9707 14.0078 82.0879 14.4746 82.0879 15.0293C82.0879 15.4199 82.0078 15.7773 81.8477 16.1016C81.6914 16.4219 81.4648 16.6953 81.168 16.9219C80.875 17.1445 80.5234 17.3105 80.1133 17.4199L79.7969 17.543H77.1426L77.1309 16.623H79.1348C79.541 16.623 79.8789 16.5527 80.1484 16.4121C80.418 16.2676 80.6211 16.0742 80.7578 15.832C80.8945 15.5898 80.9629 15.3223 80.9629 15.0293C80.9629 14.7012 80.8984 14.4141 80.7695 14.168C80.6406 13.9219 80.4375 13.7324 80.1602 13.5996C79.8867 13.4629 79.5332 13.3945 79.0996 13.3945H77.4062V21H76.2754V12.4688ZM81.2617 21L79.1875 17.1328L80.3652 17.127L82.4688 20.9297V21H81.2617Z" fill="#574F4D"/>
</svg>
